<svg xmlns="http://www.w3.org/2000/svg" xmlns:xlink="http://www.w3.org/1999/xlink" style="width: 100%; height: 100%"
  viewBox="0 0 21 26" preserveAspectRatio="none" width="21" height="26">
  <defs><svg width="21" height="26" viewBox="-1 -1 21 26" fill="none" xmlns="http://www.w3.org/2000/svg"
      id="svg-839248629_2828">
      <path
        d="M9.94705 10.6701C9.60315 9.74508 9.26786 9.02463 8.94116 8.50875C8.64885 7.99287 8.31356 7.53925 7.93528 7.14789C7.45383 6.6498 6.80043 6.27623 5.97509 6.02718C5.14975 5.77814 4.31582 5.66251 3.47328 5.6803L5.48505 3.59899C6.34478 3.56341 7.14433 3.69683 7.88369 3.99924C8.64026 4.28387 9.32804 4.74638 9.94705 5.38678C10.4457 5.90266 10.8842 6.46301 11.2624 7.06784C11.6579 7.69045 12.0792 8.5888 12.5262 9.76287C12.8701 10.6879 13.1882 11.4083 13.4805 11.9242C13.8072 12.4401 14.1511 12.8848 14.5122 13.2584C15.0109 13.7743 15.6728 14.1567 16.4982 14.4058C17.3235 14.6548 18.1575 14.7705 19 14.7527L17.014 16.8073C16.1543 16.8429 15.3461 16.7184 14.5896 16.4337C13.833 16.1491 13.1452 15.6866 12.5262 15.0462C12.0448 14.5481 11.5977 13.9789 11.1851 13.3385C10.8068 12.6981 10.3941 11.8086 9.94705 10.6701Z"
        fill="black"></path>
      <path
        d="M6.47376 14.2635C6.12987 13.3385 5.79458 12.618 5.46788 12.1021C5.17557 11.5862 4.84028 11.1326 4.462 10.7413C3.98055 10.2432 3.32715 9.86961 2.50181 9.62057C1.67647 9.37152 0.842535 9.25589 0 9.27368L2.01177 7.19237C2.8715 7.1568 3.67105 7.29021 4.41041 7.59262C5.16698 7.87725 5.85476 8.33976 6.47376 8.98017C6.97241 9.49605 7.41087 10.0564 7.78915 10.6612C8.18463 11.2838 8.60589 12.1822 9.05295 13.3563C9.39685 14.2813 9.71495 15.0017 10.0073 15.5176C10.334 16.0335 10.6778 16.4782 11.0389 16.8518C11.5376 17.3677 12.1996 17.7501 13.0249 17.9992C13.8502 18.2482 14.6842 18.3638 15.5267 18.3461L13.5407 20.4007C12.681 20.4363 11.8729 20.3117 11.1163 20.0271C10.3597 19.7425 9.67196 19.28 9.05295 18.6396C8.5715 18.1415 8.12445 17.5722 7.71178 16.9318C7.33349 16.2914 6.92082 15.402 6.47376 14.2635Z"
        fill="black"></path>
      <path
        d="M12.4146 4.91537C12.7413 5.43125 13.0766 6.15171 13.4205 7.07674C13.5853 7.49637 13.7454 7.88217 13.9008 8.23414L15.9704 6.09298C15.5342 4.95632 15.1227 4.08349 14.7359 3.47447C14.3576 2.86964 13.9191 2.30929 13.4205 1.79341C12.8015 1.15301 12.1137 0.690493 11.3571 0.405869C10.6178 0.103457 9.81821 -0.0299607 8.95848 0.00561769L6.94671 2.08693C7.78925 2.06914 8.62318 2.18477 9.44852 2.43381C10.2739 2.68286 10.9273 3.05643 11.4087 3.55452C11.787 3.94587 12.1223 4.39949 12.4146 4.91537Z"
        fill="black"></path>
      <path
        d="M5.03508 15.6274L2.9669 17.7671C2.97808 17.7968 2.98928 17.8267 3.00049 17.8569C3.44755 18.9954 3.86022 19.8848 4.2385 20.5252C4.65117 21.1656 5.09823 21.7349 5.57968 22.233C6.19868 22.8734 6.88647 23.3359 7.64303 23.6205C8.39959 23.9051 9.20774 24.0296 10.0675 23.9941L12.0534 21.9394C11.2109 21.9572 10.377 21.8416 9.55163 21.5926C8.72629 21.3435 8.0643 20.961 7.56566 20.4452C7.20457 20.0716 6.86068 19.6269 6.53398 19.111C6.24167 18.5951 5.92357 17.8747 5.57968 16.9496C5.39368 16.4612 5.21215 16.0204 5.03508 15.6274Z"
        fill="black"></path>
    </svg></defs>
  <g>
    <path
      d="M9.94705 10.6701C9.60315 9.74508 9.26786 9.02463 8.94116 8.50875C8.64885 7.99287 8.31356 7.53925 7.93528 7.14789C7.45383 6.6498 6.80043 6.27623 5.97509 6.02718C5.14975 5.77814 4.31582 5.66251 3.47328 5.6803L5.48505 3.59899C6.34478 3.56341 7.14433 3.69683 7.88369 3.99924C8.64026 4.28387 9.32804 4.74638 9.94705 5.38678C10.4457 5.90266 10.8842 6.46301 11.2624 7.06784C11.6579 7.69045 12.0792 8.5888 12.5262 9.76287C12.8701 10.6879 13.1882 11.4083 13.4805 11.9242C13.8072 12.4401 14.1511 12.8848 14.5122 13.2584C15.0109 13.7743 15.6728 14.1567 16.4982 14.4058C17.3235 14.6548 18.1575 14.7705 19 14.7527L17.014 16.8073C16.1543 16.8429 15.3461 16.7184 14.5896 16.4337C13.833 16.1491 13.1452 15.6866 12.5262 15.0462C12.0448 14.5481 11.5977 13.9789 11.1851 13.3385C10.8068 12.6981 10.3941 11.8086 9.94705 10.6701Z"
      fill="black"></path>
    <path
      d="M6.47376 14.2635C6.12987 13.3385 5.79458 12.618 5.46788 12.1021C5.17557 11.5862 4.84028 11.1326 4.462 10.7413C3.98055 10.2432 3.32715 9.86961 2.50181 9.62057C1.67647 9.37152 0.842535 9.25589 0 9.27368L2.01177 7.19237C2.8715 7.1568 3.67105 7.29021 4.41041 7.59262C5.16698 7.87725 5.85476 8.33976 6.47376 8.98017C6.97241 9.49605 7.41087 10.0564 7.78915 10.6612C8.18463 11.2838 8.60589 12.1822 9.05295 13.3563C9.39685 14.2813 9.71495 15.0017 10.0073 15.5176C10.334 16.0335 10.6778 16.4782 11.0389 16.8518C11.5376 17.3677 12.1996 17.7501 13.0249 17.9992C13.8502 18.2482 14.6842 18.3638 15.5267 18.3461L13.5407 20.4007C12.681 20.4363 11.8729 20.3117 11.1163 20.0271C10.3597 19.7425 9.67196 19.28 9.05295 18.6396C8.5715 18.1415 8.12445 17.5722 7.71178 16.9318C7.33349 16.2914 6.92082 15.402 6.47376 14.2635Z"
      fill="black"></path>
    <path
      d="M12.4146 4.91537C12.7413 5.43125 13.0766 6.15171 13.4205 7.07674C13.5853 7.49637 13.7454 7.88217 13.9008 8.23414L15.9704 6.09298C15.5342 4.95632 15.1227 4.08349 14.7359 3.47447C14.3576 2.86964 13.9191 2.30929 13.4205 1.79341C12.8015 1.15301 12.1137 0.690493 11.3571 0.405869C10.6178 0.103457 9.81821 -0.0299607 8.95848 0.00561769L6.94671 2.08693C7.78925 2.06914 8.62318 2.18477 9.44852 2.43381C10.2739 2.68286 10.9273 3.05643 11.4087 3.55452C11.787 3.94587 12.1223 4.39949 12.4146 4.91537Z"
      fill="black"></path>
    <path
      d="M5.03508 15.6274L2.9669 17.7671C2.97808 17.7968 2.98928 17.8267 3.00049 17.8569C3.44755 18.9954 3.86022 19.8848 4.2385 20.5252C4.65117 21.1656 5.09823 21.7349 5.57968 22.233C6.19868 22.8734 6.88647 23.3359 7.64303 23.6205C8.39959 23.9051 9.20774 24.0296 10.0675 23.9941L12.0534 21.9394C11.2109 21.9572 10.377 21.8416 9.55163 21.5926C8.72629 21.3435 8.0643 20.961 7.56566 20.4452C7.20457 20.0716 6.86068 19.6269 6.53398 19.111C6.24167 18.5951 5.92357 17.8747 5.57968 16.9496C5.39368 16.4612 5.21215 16.0204 5.03508 15.6274Z"
      fill="black"></path>
  </g>
</svg>